HIERARCHY
ROOT joint_0
{
	OFFSET 0.000000 0.000000 0.000000
	CHANNELS 6 Xposition Yposition Zposition Zrotation Yrotation Xrotation 
	JOINT joint_1
	{
		OFFSET 13.542969 -4.074463 123.986084
		CHANNELS 3 Zrotation Yrotation Xrotation
		JOINT joint_2
		{
			OFFSET -0.108154 -3.018066 113.860962
			CHANNELS 3 Zrotation Yrotation Xrotation
			JOINT joint_3
			{
				OFFSET -1.139648 -3.876465 113.702026
				CHANNELS 3 Zrotation Yrotation Xrotation
				JOINT joint_4
				{
					OFFSET 13.593506 -8.582153 160.876953
					CHANNELS 3 Zrotation Yrotation Xrotation
					JOINT joint_5
					{
						OFFSET 26.480957 -11.565674 94.427979
						CHANNELS 3 Zrotation Yrotation Xrotation
						End Site
						{
							OFFSET 0.000000 0.000000 0.000000
						}
					}
				}
				JOINT joint_6
				{
					OFFSET 3.003662 -39.658691 88.713989
					CHANNELS 3 Zrotation Yrotation Xrotation
					JOINT joint_7
					{
						OFFSET -25.253906 -162.506348 -28.477051
						CHANNELS 3 Zrotation Yrotation Xrotation
						JOINT joint_8
						{
							OFFSET 23.083252 -8.502686 -295.281982
							CHANNELS 3 Zrotation Yrotation Xrotation
							JOINT joint_9
							{
								OFFSET 20.205566 -32.167908 -263.458008
								CHANNELS 3 Zrotation Yrotation Xrotation
								End Site
								{
									OFFSET 0.000000 0.000000 0.000000
								}
							}
						}
					}
				}
				JOINT joint_10
				{
					OFFSET 12.313232 30.012939 91.642944
					CHANNELS 3 Zrotation Yrotation Xrotation
					JOINT joint_11
					{
						OFFSET 31.960205 162.667969 -19.398926
						CHANNELS 3 Zrotation Yrotation Xrotation
						JOINT joint_12
						{
							OFFSET 51.325195 40.249023 -289.038086
							CHANNELS 3 Zrotation Yrotation Xrotation
							JOINT joint_13
							{
								OFFSET 70.170898 60.433594 -249.556030
								CHANNELS 3 Zrotation Yrotation Xrotation
								End Site
								{
									OFFSET 0.000000 0.000000 0.000000
								}
							}
						}
					}
				}
			}
		}
	}
	JOINT joint_14
	{
		OFFSET -15.093262 -91.803833 -113.326904
		CHANNELS 3 Zrotation Yrotation Xrotation
		JOINT joint_15
		{
			OFFSET 2.288818 -12.306763 -494.206055
			CHANNELS 3 Zrotation Yrotation Xrotation
			JOINT joint_16
			{
				OFFSET -54.691650 0.383423 -424.447006
				CHANNELS 3 Zrotation Yrotation Xrotation
				JOINT joint_17
				{
					OFFSET 202.154297 -21.791382 -80.181999
					CHANNELS 3 Zrotation Yrotation Xrotation
					End Site
					{
						OFFSET 0.000000 0.000000 0.000000
					}
				}
			}
		}
	}
	JOINT joint_18
	{
		OFFSET 10.704102 91.957275 -113.713013
		CHANNELS 3 Zrotation Yrotation Xrotation
		JOINT joint_19
		{
			OFFSET 0.427490 1.374878 -494.359924
			CHANNELS 3 Zrotation Yrotation Xrotation
			JOINT joint_20
			{
				OFFSET -53.071777 2.769531 -424.643028
				CHANNELS 3 Zrotation Yrotation Xrotation
				JOINT joint_21
				{
					OFFSET 200.264648 -28.253052 -82.862999
					CHANNELS 3 Zrotation Yrotation Xrotation
					End Site
					{
						OFFSET 0.000000 0.000000 0.000000
					}
				}
			}
		}
	}
}
MOTION
Frames: 10
Frame Time: 0.016667
-3283.722412 1360.615112 1143.652954 4.717368 -1.790020 -0.094346 -0.409704 -1.399243 0.297120 -0.355587 0.204892 -0.128016 -0.369796 -0.280961 0.037891 0.358767 0.288369 -1.156083 0.000000 0.000000 0.000000 2.593028 0.346010 0.843514 -0.055536 0.386179 3.587778 -0.614260 3.084170 -2.595583 0.000000 0.000000 0.000000 2.980291 -0.327238 0.791584 -0.500879 0.048027 -3.237746 0.177653 0.688466 0.034781 0.000000 0.000000 0.000000 -1.799367 0.955587 3.584648 -1.744564 -2.018958 -0.015057 -1.681337 1.482053 -0.504075 0.000000 0.000000 0.000000 -3.854185 0.245547 -0.889158 -3.851619 0.628322 -0.242342 -3.716040 1.694343 -1.295778 0.000000 0.000000 0.000000 
-3283.967285 1360.430176 1143.615967 4.763122 -1.809720 -0.081091 -0.398734 -1.402078 0.290289 -0.344366 0.204664 -0.125137 -0.358618 -0.281579 0.036790 0.357329 0.286265 -1.151935 0.000000 0.000000 0.000000 2.630882 0.275120 0.838977 -0.087058 0.335452 3.529354 -0.650362 3.337911 -2.602381 0.000000 0.000000 0.000000 2.977158 -0.346679 0.819229 -0.508641 0.040511 -3.273674 0.177088 0.689878 0.031357 0.000000 0.000000 0.000000 -1.812515 0.945328 3.580923 -1.758840 -1.982160 -0.016820 -1.695312 1.487973 -0.508937 0.000000 0.000000 0.000000 -3.868711 0.237064 -0.897667 -3.865995 0.646333 -0.239881 -3.729778 1.715665 -1.298443 0.000000 0.000000 0.000000 
-3284.152832 1360.260742 1143.572998 4.812314 -1.827874 -0.067324 -0.388176 -1.413122 0.280309 -0.333209 0.205234 -0.124836 -0.347479 -0.281938 0.037142 0.355477 0.286729 -1.145152 0.000000 0.000000 0.000000 2.679335 0.173246 0.840863 -0.133139 0.266565 3.421699 -0.697646 3.692486 -2.571320 0.000000 0.000000 0.000000 2.975188 -0.363307 0.853084 -0.516085 0.037597 -3.313026 0.177399 0.688589 0.033357 0.000000 0.000000 0.000000 -1.826862 0.942779 3.576059 -1.773845 -1.957666 -0.019747 -1.710168 1.498468 -0.513656 0.000000 0.000000 0.000000 -3.885098 0.240161 -0.910237 -3.882347 0.643525 -0.230842 -3.744501 1.743439 -1.300616 0.000000 0.000000 0.000000 
-3284.283936 1360.086304 1143.521973 4.869049 -1.843825 -0.052803 -0.375409 -1.428216 0.264230 -0.319658 0.205452 -0.123095 -0.333978 -0.283340 0.037934 0.353282 0.288878 -1.136387 0.000000 0.000000 0.000000 2.743116 0.044743 0.849934 -0.192036 0.182128 3.280196 -0.756778 4.133987 -2.525566 0.000000 0.000000 0.000000 2.971487 -0.380345 0.894185 -0.524046 0.037001 -3.358262 0.178319 0.685903 0.038685 0.000000 0.000000 0.000000 -1.843138 0.943640 3.571724 -1.790573 -1.938105 -0.024875 -1.726953 1.510349 -0.518987 0.000000 0.000000 0.000000 -3.904061 0.247325 -0.923403 -3.901326 0.631381 -0.221230 -3.761647 1.777613 -1.302892 0.000000 0.000000 0.000000 
-3284.325439 1359.848511 1143.458984 4.953011 -1.851036 -0.036878 -0.355278 -1.450766 0.236785 -0.298321 0.207251 -0.117574 -0.312905 -0.287911 0.035661 0.348258 0.286666 -1.119413 0.000000 0.000000 0.000000 2.855405 -0.113384 0.877346 -0.264886 0.082793 3.131223 -0.835751 4.671446 -2.526965 0.000000 0.000000 0.000000 2.964004 -0.405859 0.954608 -0.535823 0.036018 -3.425231 0.179601 0.681166 0.046926 0.000000 0.000000 0.000000 -1.866636 0.940922 3.573250 -1.814548 -1.917914 -0.035481 -1.751290 1.517980 -0.527756 0.000000 0.000000 0.000000 -3.930006 0.237136 -0.926638 -3.927175 0.635766 -0.228274 -3.787604 1.822760 -1.307251 0.000000 0.000000 0.000000 
-3284.334229 1359.541870 1143.385010 5.054277 -1.852153 -0.019065 -0.328555 -1.478095 0.202948 -0.270165 0.208214 -0.109842 -0.285000 -0.291916 0.031305 0.342994 0.286158 -1.100802 0.000000 0.000000 0.000000 3.038513 -0.319366 0.926952 -0.358155 -0.044083 2.973608 -0.943531 5.345226 -2.593802 0.000000 0.000000 0.000000 2.948962 -0.441056 1.031059 -0.549907 0.032831 -3.510910 0.184229 0.683039 0.061218 0.000000 0.000000 0.000000 -1.895149 0.934672 3.578822 -1.843522 -1.899086 -0.049013 -1.780743 1.523860 -0.538726 0.000000 0.000000 0.000000 -3.960694 0.202166 -0.918866 -3.957571 0.672055 -0.255928 -3.820751 1.877178 -1.313253 0.000000 0.000000 0.000000 
-3284.253418 1359.170776 1143.297974 5.182368 -1.844696 -0.000034 -0.293861 -1.512655 0.156969 -0.233614 0.210469 -0.096638 -0.248869 -0.297691 0.023984 0.335078 0.279158 -1.075539 0.000000 0.000000 0.000000 3.268064 -0.556025 0.996681 -0.470215 -0.185087 2.799383 -1.074214 6.115175 -2.700119 0.000000 0.000000 0.000000 2.928225 -0.485422 1.126236 -0.567854 0.028581 -3.617856 0.189041 0.683533 0.077180 0.000000 0.000000 0.000000 -1.930663 0.924738 3.590613 -1.879531 -1.879256 -0.068115 -1.817556 1.525348 -0.553073 0.000000 0.000000 0.000000 -3.998359 0.149976 -0.900957 -3.994832 0.724853 -0.300159 -3.862707 1.942829 -1.321297 0.000000 0.000000 0.000000 
-3283.877197 1358.694458 1143.197021 5.382611 -1.813046 0.017667 -0.241274 -1.563561 0.082533 -0.178229 0.213485 -0.072816 -0.194337 -0.310890 0.010010 0.317296 0.247330 -1.026034 0.000000 0.000000 0.000000 3.506224 -0.773215 1.087011 -0.590492 -0.300387 2.622400 -1.213660 6.871978 -2.835941 0.000000 0.000000 0.000000 2.905436 -0.543862 1.255731 -0.596779 0.024038 -3.765646 0.184742 0.659250 0.081868 0.000000 0.000000 0.000000 -1.983623 0.901243 3.622373 -1.933443 -1.844687 -0.105874 -1.873619 1.511062 -0.576719 0.000000 0.000000 0.000000 -4.052546 0.080309 -0.863302 -4.048602 0.774082 -0.366884 -3.923310 2.029203 -1.334121 0.000000 0.000000 0.000000 
-3283.207031 1358.022583 1143.068970 5.658692 -1.753334 0.029421 -0.163774 -1.637240 -0.032073 -0.096563 0.217983 -0.034487 -0.113984 -0.330326 -0.013182 0.288090 0.186806 -0.948515 0.000000 0.000000 0.000000 3.751988 -0.972506 1.195409 -0.719033 -0.391315 2.437407 -1.360489 7.592084 -2.996435 0.000000 0.000000 0.000000 2.863989 -0.627291 1.443440 -0.639352 0.019323 -3.978164 0.175648 0.610235 0.090659 0.000000 0.000000 0.000000 -2.053883 0.861954 3.690524 -2.005039 -1.800110 -0.171508 -1.949870 1.479443 -0.610190 0.000000 0.000000 0.000000 -4.121401 -0.015764 -0.787314 -4.117018 0.826004 -0.471554 -4.002787 2.142165 -1.350981 0.000000 0.000000 0.000000 
-3282.240234 1357.246338 1142.927002 6.007166 -1.669128 0.040130 -0.068513 -1.726962 -0.174334 0.003915 0.223028 0.013914 -0.015122 -0.354086 -0.043395 0.249107 0.097705 -0.849034 0.000000 0.000000 0.000000 4.006529 -1.153613 1.320825 -0.860485 -0.456942 2.245379 -1.519703 8.300622 -3.173793 0.000000 0.000000 0.000000 2.819335 -0.726318 1.665712 -0.693183 0.012598 -4.229550 0.156201 0.537378 0.083318 0.000000 0.000000 0.000000 -2.142042 0.808316 3.778827 -2.094840 -1.741064 -0.255299 -2.045617 1.433379 -0.652908 0.000000 0.000000 0.000000 -4.206864 -0.130340 -0.691184 -4.202006 0.874592 -0.599237 -4.101060 2.276991 -1.372510 0.000000 0.000000 0.000000 
